<?xml version="1.0" encoding="UTF-8"?>
<svg version="1.1" xmlns="http://www.w3.org/2000/svg" width="1316" height="664">
<path d="M0 0 C1.24404763 -0.00350607 2.48809527 -0.00701215 3.76984131 -0.01062447 C7.2263907 -0.018331 10.68272752 -0.01708454 14.13926802 -0.01206893 C17.8984876 -0.00880164 21.65768466 -0.01708538 25.41689706 -0.02388728 C32.00666927 -0.03419623 38.59641209 -0.03702952 45.18619156 -0.03497505 C54.98554717 -0.0319274 64.78487022 -0.0402438 74.58421951 -0.0507243 C93.10366125 -0.07007734 111.62309192 -0.07569301 130.14254257 -0.07683842 C144.44291416 -0.07775711 158.7432814 -0.08187171 173.04365158 -0.08823967 C177.15832654 -0.09003473 181.27300151 -0.09181435 185.38767648 -0.09358943 C186.41056437 -0.09403152 187.43345226 -0.09447362 188.48733675 -0.09492911 C217.26368267 -0.10723943 246.04002707 -0.11513004 274.81637573 -0.11424255 C275.90155565 -0.1142114 276.98673556 -0.11418024 278.10479972 -0.11414814 C283.60508352 -0.11398192 289.10536731 -0.11378384 294.60565111 -0.11357872 C295.69804928 -0.11353883 296.79044744 -0.11349894 297.91594858 -0.11345784 C300.12504433 -0.11337697 302.33414008 -0.11329337 304.54323583 -0.11320706 C338.9162729 -0.11198144 373.28927051 -0.12699598 407.6622963 -0.15435219 C446.27012565 -0.18506597 484.87792908 -0.20228511 523.48577142 -0.20042574 C527.6017038 -0.20027648 531.71763619 -0.20017907 535.83356857 -0.20011711 C536.84703387 -0.2000938 537.86049917 -0.20007049 538.90467553 -0.20004648 C555.22163447 -0.19998491 571.53855919 -0.21276253 587.85550794 -0.22998164 C604.2513359 -0.24692627 620.64711373 -0.24892113 637.04294559 -0.235763 C646.78547342 -0.22836608 656.52784909 -0.23205393 666.27036083 -0.25164768 C672.77824934 -0.26363106 679.28602742 -0.26107491 685.79391082 -0.24670668 C689.50185788 -0.23892978 693.2095101 -0.2374316 696.91743657 -0.25362138 C700.91489533 -0.2709224 704.91165743 -0.25718692 708.90911865 -0.24050903 C710.05581012 -0.25044539 711.2025016 -0.26038175 712.38394129 -0.27061921 C722.98020091 -0.17696663 731.95631096 2.41453929 739.69452286 9.84711266 C748.52544567 20.42707261 748.85640487 31.22928868 748.83995438 44.33205223 C748.84182417 45.66740266 748.84412554 47.00275254 748.8468197 48.33810157 C748.8529233 51.99709619 748.8528058 55.65606791 748.85162532 59.31506646 C748.85142095 63.26541375 748.85694353 67.21575376 748.86168289 71.16609764 C748.86998202 78.90155784 748.8727374 86.63701043 748.87329527 94.37247471 C748.87377076 100.66131577 748.87582718 106.95015433 748.8789959 113.2389946 C748.88780032 131.07634141 748.89241558 148.9136822 748.89166542 166.7510312 C748.89160549 168.19283346 748.89160549 168.19283346 748.89154434 169.66376305 C748.89148302 171.1073294 748.89148302 171.1073294 748.89142046 172.58005872 C748.89101401 188.17659675 748.90058381 203.77311065 748.91468271 219.3696417 C748.92905136 235.39122913 748.93595263 251.41280479 748.93508893 267.43439883 C748.93475714 276.42642498 748.93749646 285.41842582 748.94826698 294.41044617 C748.9573784 302.06626197 748.95954194 309.72204098 748.95275756 317.37785987 C748.94949565 321.28186183 748.94942379 325.18579322 748.95811081 329.08978844 C748.96599123 332.66817665 748.96452871 336.24643851 748.95582668 339.8248237 C748.95357314 341.72288669 748.96110821 343.62095366 748.96906632 345.51900131 C748.91994342 357.74113678 747.577793 368.34475742 738.95624161 377.50726891 C733.18076363 383.00206945 726.65817246 386.37797384 718.61537653 386.38837141 C717.55384746 386.39215605 716.49231839 386.3959407 715.39862177 386.39984003 C713.63957818 386.39847213 713.63957818 386.39847213 711.84499836 386.39707661 C709.97616913 386.40150374 709.97616913 386.40150374 708.06958577 386.40602031 C704.58929476 386.41410683 701.10902378 386.41591866 697.6287245 386.41674327 C693.85063554 386.41870889 690.07255753 386.42638292 686.29447502 386.43331581 C678.79104365 386.44615028 671.28761574 386.45351969 663.78417594 386.4592146 C654.80046545 386.4662651 645.81676531 386.47902345 636.83306142 386.49176379 C614.08364848 386.5236397 591.33422868 386.54345435 568.58480087 386.56104931 C562.42416338 386.56581603 556.2635261 386.57082488 550.10288882 386.57585454 C511.87254265 386.60690023 473.64219474 386.63352237 435.41183949 386.65027332 C426.55172154 386.65421067 417.69160363 386.65822248 408.83148575 386.6622982 C407.73070961 386.66279987 406.62993347 386.66330154 405.49580048 386.66381841 C369.80535752 386.68023681 334.11498313 386.71869294 298.4245739 386.76958531 C261.74261753 386.82179632 225.06069766 386.85458639 188.37870337 386.86185086 C183.1985602 386.86287947 178.0184171 386.86411579 172.838274 386.86547089 C171.81875752 386.86572892 170.79924105 386.86598696 169.74883013 386.86625282 C153.33511965 386.87094956 136.92149944 386.8958919 120.50782275 386.92822231 C104.01066126 386.96024348 87.5136015 386.97023476 71.01641262 386.95779037 C61.21404884 386.95104937 51.41203432 386.96101223 41.60972507 386.99491737 C35.0605477 387.01591764 28.51160693 387.01508812 21.96242267 386.99658395 C18.23152694 386.98666216 14.50129669 386.98614327 10.77046425 387.01224678 C6.74649341 387.04017672 2.72405631 387.02143478 -1.29994488 386.99834919 C-2.45157011 387.01382542 -3.60319534 387.02930166 -4.7897183 387.04524687 C-14.70628968 386.91955876 -22.92044263 383.58364883 -30.29375839 376.88226891 C-35.94640786 370.66435449 -38.41330469 363.86313468 -38.42797947 355.54557419 C-38.43243731 354.37335607 -38.43689516 353.20113795 -38.44148809 351.99339807 C-38.44130372 350.70451201 -38.44111936 349.41562594 -38.44092941 348.08768272 C-38.44422924 346.70542346 -38.44795506 345.32316515 -38.45207089 343.94090807 C-38.46208553 340.13832134 -38.46580682 336.33575039 -38.4684602 332.53315234 C-38.47236484 328.43346343 -38.48194307 324.333787 -38.49067307 320.23410606 C-38.5104329 310.33130392 -38.52050305 300.42850075 -38.52940086 290.52568382 C-38.53378452 285.86178549 -38.53915112 281.19788829 -38.54438972 276.53399086 C-38.56140148 261.0293247 -38.57589557 245.52465925 -38.58313847 230.0199852 C-38.58504835 225.99670346 -38.58696868 221.97342172 -38.58892441 217.95014 C-38.58940815 216.95017855 -38.58989189 215.95021709 -38.59039029 214.91995378 C-38.59869031 198.72181307 -38.62402701 182.52374621 -38.65650509 166.32563774 C-38.68958056 149.69393882 -38.70758767 133.06227743 -38.71078271 116.43054545 C-38.71294734 107.09302988 -38.72168923 97.75562201 -38.74724388 88.4181385 C-38.76895753 80.46578315 -38.77699802 72.51356167 -38.7672771 64.56118004 C-38.76273433 60.50522502 -38.76461713 56.44954617 -38.78403854 52.39362907 C-38.80168493 48.67622518 -38.80066091 44.95929862 -38.78514125 41.24188955 C-38.78164786 39.26910484 -38.79778048 37.29631503 -38.81474572 35.32360017 C-38.73907337 24.84817409 -36.49600877 16.71157219 -29.21563339 9.01117516 C-20.37298341 0.94135841 -11.56940478 -0.04113782 0 0 Z " fill="#FED403" transform="translate(303.293758392334,129.74273109436035)"/>
<path d="M0 0 C0.33 0 0.66 0 1 0 C1.04675946 23.81790376 1.0820082 47.63580063 1.10362434 71.45374107 C1.1139287 82.51328442 1.12797298 93.5727992 1.15087891 104.63232422 C1.1708385 114.27390011 1.18372255 123.91545532 1.18817699 133.5570513 C1.19078001 138.6602768 1.19688077 143.76344313 1.21146011 148.86664963 C1.22508461 153.67480754 1.22921282 158.4828822 1.22621536 163.29105759 C1.22676335 165.05099948 1.23071169 166.81094431 1.23841095 168.57086945 C1.29657642 182.55845332 1.33506968 195.53214163 -8.75 206.25 C-14.52547798 211.74480055 -21.04806915 215.12070494 -29.09086508 215.1311025 C-30.15239415 215.13488715 -31.21392322 215.13867179 -32.30761984 215.14257112 C-34.06666343 215.14120323 -34.06666343 215.14120323 -35.86124325 215.1398077 C-37.73007248 215.14423484 -37.73007248 215.14423484 -39.63665584 215.14875141 C-43.11694685 215.15683793 -46.59721782 215.15864976 -50.07751711 215.15947436 C-53.85560607 215.16143999 -57.63368408 215.16911401 -61.41176659 215.17604691 C-68.91519796 215.18888138 -76.41862587 215.19625078 -83.92206567 215.20194569 C-92.90577615 215.20899619 -101.8894763 215.22175454 -110.87318019 215.23449489 C-133.62259313 215.2663708 -156.37201293 215.28618545 -179.12144074 215.30378041 C-185.28207823 215.30854712 -191.44271551 215.31355598 -197.60335279 215.31858563 C-235.83369896 215.34963133 -274.06404687 215.37625346 -312.29440212 215.39300442 C-321.15452007 215.39694176 -330.01463798 215.40095358 -338.87475586 215.4050293 C-340.52592007 215.4057818 -340.52592007 215.4057818 -342.21044113 215.4065495 C-377.90088408 215.4229679 -413.59125848 215.46142403 -449.2816677 215.5123164 C-485.96362408 215.56452741 -522.64554395 215.59731749 -559.32753823 215.60458195 C-564.50768141 215.60561057 -569.68782451 215.60684689 -574.86796761 215.60820198 C-575.88748408 215.60846002 -576.90700056 215.60871806 -577.95741148 215.60898391 C-594.37112196 215.61368065 -610.78474217 215.63862299 -627.19841886 215.67095341 C-643.69558035 215.70297457 -660.1926401 215.71296586 -676.68982898 215.70052146 C-686.49219277 215.69378047 -696.29420729 215.70374332 -706.09651654 215.73764846 C-712.64569391 215.75864874 -719.19463468 215.75781922 -725.74381894 215.73931505 C-729.47471467 215.72939325 -733.20494492 215.72887436 -736.93577736 215.75497787 C-740.9597482 215.78290782 -744.9821853 215.76416588 -749.00618649 215.74108028 C-750.15781171 215.75655652 -751.30943694 215.77203275 -752.49595991 215.78797796 C-762.41253129 215.66228986 -770.62668423 212.32637992 -778 205.625 C-783.75123685 199.29863947 -786.12756264 192.46241706 -786.12025452 184.01422119 C-786.12162918 182.7886702 -786.12300385 181.5631192 -786.12442017 180.3004303 C-786.12088128 178.94540381 -786.11724648 177.59037756 -786.11352539 176.23535156 C-786.11324327 174.80620831 -786.11340174 173.37706492 -786.1139679 171.94792175 C-786.1142549 168.07017042 -786.10837385 164.19245 -786.10139394 160.31470585 C-786.09514424 156.26146158 -786.09455532 152.20821661 -786.09336853 148.15496826 C-786.09025999 140.48045452 -786.08205301 132.80595502 -786.07201904 125.13144755 C-786.06084311 116.39391719 -786.05534372 107.65638615 -786.05032361 98.91885042 C-786.03987002 80.94589221 -786.02227978 62.97294725 -786 45 C-785.67 45 -785.34 45 -785 45 C-784.938125 46.134375 -784.87625 47.26875 -784.8125 48.4375 C-783.8741072 55.8917752 -779.69739452 62.23008831 -774 67 C-768.20762721 71.04640299 -762.92792662 74.24899692 -755.69049674 74.251849 C-754.10144321 74.25974389 -754.10144321 74.25974389 -752.48028758 74.26779827 C-751.32029592 74.26340179 -750.16030425 74.25900531 -748.96516132 74.25447559 C-747.72481016 74.25768207 -746.48445899 74.26088855 -745.20652142 74.26419219 C-741.75102026 74.27108268 -738.2957332 74.26897659 -734.84024382 74.26313647 C-731.08565523 74.25897548 -727.33108673 74.26636283 -723.57650298 74.27228898 C-716.99178581 74.28106619 -710.40709973 74.2823577 -703.82237816 74.27878571 C-694.03056482 74.27348794 -684.23878168 74.2795647 -674.44697163 74.28786864 C-655.94215864 74.30312949 -637.43735931 74.30481152 -618.93254135 74.30234561 C-604.64355521 74.30051453 -590.35457357 74.30226866 -576.065588 74.30657005 C-574.01430001 74.30717245 -571.96301202 74.30777365 -569.91172403 74.30837366 C-566.82078493 74.30928089 -563.72984583 74.31018955 -560.63890673 74.31110601 C-531.89042691 74.31953892 -503.14194878 74.32386896 -474.3934679 74.31969929 C-473.3091136 74.31954291 -472.22475929 74.31938654 -471.10754576 74.31922542 C-465.6113489 74.31841961 -460.11515203 74.31757384 -454.61895517 74.31671212 C-453.52735407 74.31654103 -452.43575297 74.31636994 -451.31107304 74.31619367 C-449.10358812 74.31584702 -446.89610319 74.31549849 -444.68861826 74.31514808 C-410.34277637 74.30979128 -375.99696015 74.31771876 -341.65112305 74.33618164 C-303.08030849 74.35689131 -264.50950984 74.36762623 -225.93868941 74.36360615 C-221.82695655 74.3632108 -217.71522369 74.36284925 -213.60349083 74.36250877 C-212.08482697 74.36237268 -212.08482697 74.36237268 -210.53548304 74.36223383 C-195.24134391 74.3610671 -179.94722083 74.36772194 -164.65308571 74.37832069 C-147.26037579 74.39036131 -129.86770125 74.39194489 -112.47499082 74.37953053 C-102.73895398 74.37289254 -93.00300167 74.37455458 -83.26697156 74.38811904 C-76.76461377 74.39634864 -70.26231946 74.3936854 -63.75996685 74.38214377 C-60.05436123 74.37587249 -56.34892082 74.37432472 -52.64332459 74.38600711 C-48.6500987 74.39848047 -44.65726848 74.38772718 -40.66404438 74.37473011 C-38.94161563 74.38569413 -38.94161563 74.38569413 -37.18439034 74.39687964 C-26.67411334 74.32574803 -16.9577789 72.25785953 -9 65 C-1.99866178 56.04968112 -0.71503372 46.96571626 -0.5859375 35.9375 C-0.56657135 34.90560547 -0.5472052 33.87371094 -0.5272522 32.81054688 C-0.46785273 29.54044657 -0.42123027 26.27031031 -0.375 23 C-0.33678373 20.77212074 -0.29772991 18.54425568 -0.2578125 16.31640625 C-0.16218415 10.87773095 -0.07702264 5.43896892 0 0 Z " fill="#016C97" transform="translate(1051,301)"/>
<path d="M0 0 C2.72970626 2.1845275 5.34087739 4.44298312 7.921875 6.80078125 C8.70046875 7.49816406 9.4790625 8.19554687 10.28125 8.9140625 C22.99406138 20.90355875 32.8364769 37.77828918 36.921875 54.80078125 C37.19773437 55.69925781 37.47359375 56.59773438 37.7578125 57.5234375 C44.9119068 82.9565709 38.30731317 109.38984051 25.75390625 131.81640625 C12.57287527 153.28827761 -8.99830683 168.78958921 -33.078125 175.80078125 C-60.40698223 181.83846384 -88.03531212 178.50438356 -111.71875 163.5625 C-114.94057209 161.43975795 -118.02261357 159.15729212 -121.078125 156.80078125 C-121.87476563 156.18847656 -122.67140625 155.57617188 -123.4921875 154.9453125 C-139.40339828 141.76093467 -150.79330701 121.89750913 -155.078125 101.80078125 C-155.25037598 101.06811035 -155.42262695 100.33543945 -155.60009766 99.58056641 C-161.25977723 74.15484652 -155.49187768 48.34707412 -141.828125 26.55078125 C-127.20208904 4.24866968 -104.1680971 -11.54575481 -78.078125 -17.19921875 C-50.84744556 -22.18170647 -22.50595608 -16.07976304 0 0 Z " fill="#FEFEFD" transform="translate(471.078125,173.19921875)"/>
<path d="M0 0 C0.96357422 -0.01224609 1.92714844 -0.02449219 2.91992188 -0.03710938 C3.84998047 -0.03904297 4.78003906 -0.04097656 5.73828125 -0.04296875 C6.59075439 -0.04707764 7.44322754 -0.05118652 8.3215332 -0.05541992 C11.00158359 0.21974777 12.46900257 0.65419039 14.6875 2.1875 C17.72441857 6.22500283 18.97420364 10.77197558 20.38671875 15.55078125 C20.6266304 16.34276413 20.86654205 17.13474701 21.11372375 17.95072937 C21.87385958 20.46528258 22.62455038 22.98254107 23.375 25.5 C23.89065374 27.21177613 24.4069232 28.9233669 24.92382812 30.63476562 C26.18552399 34.81689816 27.43876039 39.00148149 28.6875 43.1875 C30.35238678 38.79703245 31.98831899 34.42275674 33.40625 29.9453125 C33.69886719 29.02363281 33.99148438 28.10195312 34.29296875 27.15234375 C34.58816406 26.21519531 34.88335938 25.27804688 35.1875 24.3125 C35.48269531 23.38308594 35.77789063 22.45367187 36.08203125 21.49609375 C36.52095703 20.10970703 36.52095703 20.10970703 36.96875 18.6953125 C37.401875 17.32874512 37.401875 17.32874512 37.84375 15.93457031 C38.41108675 14.08744267 38.95241621 12.2321459 39.46875 10.37011719 C39.71625 9.48227539 39.96375 8.59443359 40.21875 7.6796875 C40.43080078 6.88675293 40.64285156 6.09381836 40.86132812 5.27685547 C41.81702739 2.85993042 42.57867046 1.71213078 44.6875 0.1875 C48.44561711 -0.50279008 52.24796528 -0.36797076 56.0625 -0.375 C57.1040625 -0.41173828 58.145625 -0.44847656 59.21875 -0.48632812 C66.82528473 -0.53009974 66.82528473 -0.53009974 70.76171875 2.74609375 C72.78672798 6.36482222 74.11202242 9.82095332 75.125 13.8125 C75.53415868 15.30496134 75.94436302 16.79713631 76.35546875 18.2890625 C76.5673584 19.07571289 76.77924805 19.86236328 76.99755859 20.67285156 C78.23933917 25.19880341 79.59165049 29.69162641 80.9375 34.1875 C81.19587646 35.06615723 81.45425293 35.94481445 81.72045898 36.85009766 C81.96223877 37.66269043 82.20401855 38.4752832 82.453125 39.3125 C82.77458496 40.39917969 82.77458496 40.39917969 83.10253906 41.5078125 C83.55540467 43.20047662 83.55540467 43.20047662 84.6875 44.1875 C84.8733667 43.50872803 85.0592334 42.82995605 85.25073242 42.13061523 C87.35448563 34.47087898 89.49886619 26.82342651 91.6875 19.1875 C91.93226074 18.33220703 92.17702148 17.47691406 92.42919922 16.59570312 C93.03547557 14.51473683 93.6664528 12.44390519 94.3125 10.375 C94.65539062 9.25480469 94.99828125 8.13460937 95.3515625 6.98046875 C97.06485219 3.39859118 98.15663925 2.07483989 101.6875 0.1875 C105.45248153 -0.30741834 109.14754636 -0.23460663 112.9375 -0.125 C114.46503906 -0.11049805 114.46503906 -0.11049805 116.0234375 -0.09570312 C123.5192324 0.0192324 123.5192324 0.0192324 124.6875 1.1875 C124.29476084 8.41024717 122.44500489 14.61574576 120.046875 21.40625 C119.68281555 22.46299927 119.3187561 23.51974854 118.94366455 24.60852051 C117.78373293 27.9713001 116.61141865 31.32958038 115.4375 34.6875 C113.90621614 39.09194751 112.38096009 43.49844315 110.859375 47.90625 C110.49185623 48.96703262 110.12433746 50.02781525 109.74568176 51.1207428 C107.36357252 58.05055498 105.15766272 65.00651281 103.25592041 72.08422852 C102.09341953 76.29800415 100.97836194 79.91493615 97.24609375 82.43359375 C90.15199926 84.52391472 80.49118989 85.14634847 73.8203125 81.7109375 C70.83138339 78.17458548 69.95529695 74.58308549 68.6875 70.1875 C68.05354264 68.34223126 67.40716465 66.50119431 66.75 64.6640625 C66.24339844 63.22546875 66.24339844 63.22546875 65.7265625 61.7578125 C65.0363047 59.80121709 64.34361273 57.84547865 63.6484375 55.890625 C57.6875 38.91787929 57.6875 38.91787929 57.6875 33.1875 C57.0275 33.1875 56.3675 33.1875 55.6875 33.1875 C55.55794922 34.01362793 55.55794922 34.01362793 55.42578125 34.85644531 C54.01590134 42.83390804 51.38745155 50.32732363 48.6875 57.9375 C48.23115046 59.23806374 47.77541755 60.53884401 47.3203125 61.83984375 C46.4836139 64.22864301 45.64411349 66.61646427 44.80078125 69.00292969 C44.05801431 71.12763406 43.35851016 73.26795386 42.70288086 75.42114258 C41.31857819 79.19261014 39.20593602 81.37906326 35.6875 83.1875 C32.63461065 83.84875768 29.73740903 83.84447017 26.625 83.75 C25.83544922 83.76095703 25.04589844 83.77191406 24.23242188 83.78320312 C20.46788651 83.73587032 18.15445803 83.44543872 14.81640625 81.6015625 C12.21441603 78.65104882 10.93318816 75.66826193 9.6875 72 C9.46578125 71.39736328 9.2440625 70.79472656 9.015625 70.17382812 C7.52237239 65.99686875 6.2667723 61.76268031 5.0410614 57.5002594 C3.00097712 50.41468137 0.79527402 43.41967557 -1.64453125 36.4609375 C-1.92892059 35.64805771 -2.21330994 34.83517792 -2.50631714 33.99766541 C-3.67449812 30.66815834 -4.8474896 27.34048425 -6.03295898 24.01708984 C-6.91317822 21.54333331 -7.77975044 19.06512585 -8.64453125 16.5859375 C-8.91320511 15.84419281 -9.18187897 15.10244812 -9.45869446 14.33822632 C-11.02103822 9.82401539 -11.67817253 6.03275833 -11.3125 1.1875 C-8.96722696 -1.15777304 -3.1491726 0.00208141 0 0 Z " fill="#046D96" transform="translate(702.3125,213.8125)"/>
<path d="M0 0 C5.13503371 4.42775548 8.5184069 10.10101281 9.875 16.75 C9.97085874 18.66373998 10.01307091 20.58045628 10.02026367 22.49658203 C10.02664352 23.65102814 10.03302338 24.80547424 10.03959656 25.99490356 C10.04070938 27.23666351 10.0418222 28.47842346 10.04296875 29.7578125 C10.04796135 31.6732637 10.04796135 31.6732637 10.05305481 33.62741089 C10.05811674 36.32569876 10.06089595 39.02388585 10.06030273 41.72216797 C10.0602008 45.18359703 10.0738915 48.64482242 10.09107494 52.10620308 C10.10484142 55.40673208 10.10428262 58.70725866 10.10546875 62.0078125 C10.11265427 63.25362091 10.11983978 64.49942932 10.12724304 65.7829895 C10.12416641 66.93113129 10.12108978 68.07927307 10.11791992 69.26220703 C10.11934494 70.27606476 10.12076996 71.28992249 10.12223816 72.33450317 C9.875 74.75 9.875 74.75 7.875 76.75 C5.84375 77.00878906 5.84375 77.00878906 3.375 77.015625 C2.488125 77.01820313 1.60125 77.02078125 0.6875 77.0234375 C-0.240625 77.01570313 -1.16875 77.00796875 -2.125 77 C-3.053125 77.00773437 -3.98125 77.01546875 -4.9375 77.0234375 C-6.2678125 77.01957031 -6.2678125 77.01957031 -7.625 77.015625 C-8.4396875 77.01336914 -9.254375 77.01111328 -10.09375 77.00878906 C-12.125 76.75 -12.125 76.75 -14.125 74.75 C-14.75 72.625 -14.75 72.625 -15.125 70.75 C-16.08599609 71.25660156 -16.08599609 71.25660156 -17.06640625 71.7734375 C-17.93136719 72.21945312 -18.79632812 72.66546875 -19.6875 73.125 C-20.53441406 73.56585938 -21.38132812 74.00671875 -22.25390625 74.4609375 C-32.99416662 79.28309522 -46.53216471 79.48727794 -57.94921875 76.875 C-65.23169401 74.04033613 -71.64136063 69.74692661 -75.8046875 63.046875 C-78.60380941 56.05735165 -78.61993026 46.95166005 -76.09375 39.8515625 C-71.68893203 32.6814977 -64.92306045 28.28990579 -56.8984375 26.09765625 C-48.91181225 24.19730169 -41.02727318 24.42157682 -32.875 24.5625 C-31.33985702 24.5775886 -29.80469954 24.59126955 -28.26953125 24.60351562 C-24.5543798 24.63615722 -20.83978667 24.68770353 -17.125 24.75 C-17.40104872 23.13620562 -17.68998281 21.52461161 -17.984375 19.9140625 C-18.22365723 18.56755615 -18.22365723 18.56755615 -18.46777344 17.19384766 C-19.00015609 14.51378874 -19.00015609 14.51378874 -21.375 12.125 C-27.77483808 9.77839271 -35.31581437 9.54738568 -41.859375 11.61328125 C-43.97784827 12.67617042 -45.55698635 13.73583224 -47.3125 15.3125 C-51.73168116 19.142457 -54.98149946 18.93286658 -60.625 18.9375 C-61.41003906 18.94974609 -62.19507813 18.96199219 -63.00390625 18.97460938 C-65.04563726 18.97986254 -67.08692251 18.8722018 -69.125 18.75 C-71.57451358 16.30048642 -71.4744214 15.44575462 -71.5625 12.0625 C-71.44557406 7.55435537 -70.7028141 4.73139552 -67.78515625 1.27734375 C-51.30493462 -13.88446015 -17.51477483 -12.25748516 0 0 Z " fill="#056D96" transform="translate(677.125,220.25)"/>
<path d="M0 0 C0.33 0.33 0.66 0.66 1 1 C0.82123766 11.03164928 -0.89742713 21.19155978 -2.10180664 31.14770508 C-2.43962475 33.95515785 -2.76767761 36.76365399 -3.09570312 39.57226562 C-3.31190057 41.36986386 -3.52867659 43.16739263 -3.74609375 44.96484375 C-3.84200302 45.79821762 -3.93791229 46.63159149 -4.03672791 47.49021912 C-4.54429754 51.59244607 -5.07950041 55.27509242 -7 59 C-8.796875 60.12109375 -8.796875 60.12109375 -11 60 C-13.578125 57.91015625 -13.578125 57.91015625 -16.25 55.0625 C-17.14203125 54.12535156 -18.0340625 53.18820312 -18.953125 52.22265625 C-19.62859375 51.48917969 -20.3040625 50.75570312 -21 50 C-24.70809225 51.5966609 -27.39952009 53.92848485 -30.4375 56.5625 C-46.3791881 70.09399768 -69.61898763 86.77281121 -91 89 C-92.2375 89.185625 -93.475 89.37125 -94.75 89.5625 C-100.79556962 89.50470297 -104.75186033 84.81351152 -109 81 C-109.59554688 80.54625 -110.19109375 80.0925 -110.8046875 79.625 C-117.36334405 74.60401891 -125.38579789 65.84260633 -128 58 C-127.16597656 58.02320313 -126.33195312 58.04640625 -125.47265625 58.0703125 C-96.34767764 58.53737974 -71.28842644 40.20781181 -50 22 C-51.79598374 17.95678032 -54.43981915 15.19503658 -57.44140625 12 C-59.08339147 9.8929914 -59.86536204 8.67121704 -60 6 C-58.37219139 3.82467377 -57.36981047 3.08345955 -54.69876099 2.48065186 C-53.79672943 2.41323792 -52.89469788 2.34582397 -51.96533203 2.27636719 C-50.94061798 2.19328308 -49.91590393 2.11019897 -48.86013794 2.02459717 C-47.75387054 1.94944885 -46.64760315 1.87430054 -45.5078125 1.796875 C-44.36972137 1.70996399 -43.23163025 1.62305298 -42.05905151 1.5335083 C-39.65036319 1.3524095 -37.24116359 1.17800563 -34.83154297 1.00976562 C-31.14546324 0.75143412 -27.46154555 0.47124117 -23.77734375 0.1875 C-21.43759565 0.01432776 -19.09775421 -0.15758887 -16.7578125 -0.328125 C-15.65559357 -0.41137024 -14.55337463 -0.49461548 -13.41775513 -0.5803833 C-11.87122757 -0.6860965 -11.87122757 -0.6860965 -10.29345703 -0.79394531 C-9.38983429 -0.85817688 -8.48621155 -0.92240845 -7.5552063 -0.98858643 C-4.88526671 -1.00051249 -2.58227905 -0.6657772 0 0 Z " fill="#026C98" transform="translate(457,247)"/>
<path d="M0 0 C1.5169043 -0.05607422 1.5169043 -0.05607422 3.06445312 -0.11328125 C10.43281751 -0.2009419 10.43281751 -0.2009419 13.7109375 2.30078125 C15.68633897 6.41358801 16.87131223 10.52638335 18 14.9375 C20.036223 22.43435335 22.22029067 29.84127962 24.75 37.1875 C25.01852783 37.99195557 25.28705566 38.79641113 25.5637207 39.62524414 C27.81239844 46.05744573 30.37914859 52.50276573 36.1875 56.375 C37.5075 56.375 38.8275 56.375 40.1875 56.375 C40.88265971 54.00382078 41.57697908 51.63239907 42.27050781 49.26074219 C42.88876539 47.14655146 43.5079257 45.03262455 44.12792969 42.91894531 C45.90174759 36.85266459 47.63970382 30.77808241 49.328125 24.6875 C49.85599609 22.79692871 49.85599609 22.79692871 50.39453125 20.86816406 C51.08131427 18.40333324 51.76118601 15.93656459 52.43359375 13.46777344 C52.74941406 12.33887695 53.06523438 11.20998047 53.390625 10.046875 C53.66551758 9.0475293 53.94041016 8.04818359 54.22363281 7.01855469 C55.23444635 4.24624237 56.08081443 2.44694172 58.1875 0.375 C60.51586914 -0.11083984 60.51586914 -0.11083984 63.22265625 -0.0859375 C64.19654297 -0.08207031 65.17042969 -0.07820312 66.17382812 -0.07421875 C67.18896484 -0.04972656 68.20410156 -0.02523437 69.25 0 C70.77850586 0.00193359 70.77850586 0.00193359 72.33789062 0.00390625 C79.90669014 0.09419014 79.90669014 0.09419014 82.1875 2.375 C81.65716242 5.45095799 80.97264444 8.35860324 80.1875 11.375 C79.73020813 13.25430914 79.27291872 15.13361888 78.81567383 17.01293945 C77.15064731 23.79503437 75.33183783 30.52007377 73.3828125 37.2265625 C72.11153944 41.61033949 70.88967839 46.00765613 69.66552734 50.40478516 C68.75128595 53.68288908 67.8292899 56.958739 66.90625 60.234375 C65.8788814 63.88400101 64.87344868 67.53713 63.90625 71.203125 C59.97300276 85.82973382 54.91541143 100.34794563 41.296875 108.5078125 C35.28245475 110.98040749 28.64464219 110.59091796 22.25 110.625 C21.28642578 110.645625 20.32285156 110.66625 19.33007812 110.6875 C13.47920063 110.71949386 9.36059354 110.16213611 4.1875 107.375 C2.31833206 105.50583206 2.97061992 102.50055426 2.9375 100 C2.91171875 98.83726562 2.8859375 97.67453125 2.859375 96.4765625 C3.1875 93.375 3.1875 93.375 4.4387207 91.69506836 C6.6422514 90.0317303 7.76206071 90.04933237 10.49609375 90.15234375 C11.32560547 90.17103516 12.15511719 90.18972656 13.00976562 90.20898438 C13.87279297 90.24314453 14.73582031 90.27730469 15.625 90.3125 C17.33172585 90.37267713 19.03880101 90.42378396 20.74609375 90.46484375 C21.50204834 90.49441162 22.25800293 90.52397949 23.03686523 90.55444336 C25.55769763 90.34411167 27.06195903 89.73556187 29.1875 88.375 C30.97220079 85.53143332 30.97220079 85.53143332 32.4375 82.25 C32.95828125 81.15429688 33.4790625 80.05859375 34.015625 78.9296875 C34.59570312 77.66511719 34.59570312 77.66511719 35.1875 76.375 C33.90875 76.478125 32.63 76.58125 31.3125 76.6875 C23.67913292 76.65155008 17.61107852 72.96114665 12 68 C4.71171671 60.22484758 1.4098486 49.31780938 -1.8125 39.375 C-2.37186778 37.70251179 -2.93311858 36.03065238 -3.49609375 34.359375 C-5.0016207 29.87288775 -6.49472688 25.38239853 -7.97998047 20.88916016 C-8.49693888 19.32797607 -9.01633729 17.76759499 -9.53955078 16.20849609 C-10.14068523 14.41319794 -10.72727158 12.61304597 -11.3125 10.8125 C-11.6321875 9.84183594 -11.951875 8.87117187 -12.28125 7.87109375 C-12.83863026 5.25222621 -12.75740286 3.85537002 -11.8125 1.375 C-9.37765075 -1.05984925 -3.26589781 0.04527395 0 0 Z " fill="#046D96" transform="translate(919.8125,213.625)"/>
<path d="M0 0 C0.75509857 -0.00191345 1.51019714 -0.0038269 2.28817749 -0.00579834 C3.87311133 -0.00715086 5.45805661 -0.00352007 7.04296875 0.00488281 C9.46119084 0.01562613 11.87867524 0.00494068 14.296875 -0.0078125 C15.84375163 -0.00649132 17.3906278 -0.0039298 18.9375 0 C19.65531647 -0.00404846 20.37313293 -0.00809692 21.11270142 -0.01226807 C26.2963018 0.03594861 30.10055254 0.53024004 33.8359375 4.265625 C34.13671875 6.98046875 34.13671875 6.98046875 34.1484375 10.203125 C34.16519531 11.26402344 34.18195313 12.32492188 34.19921875 13.41796875 C33.8359375 16.265625 33.8359375 16.265625 32.63989258 17.9296875 C30.18625357 19.74675512 28.64009458 19.58071636 25.609375 19.48828125 C24.06056641 19.46024414 24.06056641 19.46024414 22.48046875 19.43164062 C21.40152344 19.39748047 20.32257812 19.36332031 19.2109375 19.328125 C8.27611567 18.65535834 8.27611567 18.65535834 -2.1640625 21.265625 C-5.87730521 24.95505952 -6.79172531 27.9438432 -7.4140625 33.078125 C-7.56359375 34.23957031 -7.713125 35.40101563 -7.8671875 36.59765625 C-8.01414062 37.91830078 -8.01414062 37.91830078 -8.1640625 39.265625 C-7.30127686 39.24991455 -6.43849121 39.2342041 -5.54956055 39.21801758 C-2.34596983 39.16686545 0.85741265 39.1292634 4.0612793 39.10083008 C5.44741669 39.08575103 6.83350644 39.0652845 8.21948242 39.03930664 C10.21251896 39.00288784 12.20590473 38.98749482 14.19921875 38.97265625 C15.39844971 38.9569458 16.59768066 38.94123535 17.83325195 38.92504883 C20.8359375 39.265625 20.8359375 39.265625 22.72802734 40.59448242 C24.48395196 43.24307299 24.19421442 45.63870891 24.1484375 48.765625 C24.14457031 49.9103125 24.14070312 51.055 24.13671875 52.234375 C23.8359375 55.265625 23.8359375 55.265625 21.8359375 58.265625 C18.85498047 58.60620117 18.85498047 58.60620117 15.078125 58.55859375 C14.41507355 58.55434891 13.75202209 58.55010406 13.06887817 58.54573059 C10.94915309 58.52892471 8.83037562 58.49127201 6.7109375 58.453125 C5.27475331 58.43808049 3.83855422 58.42439168 2.40234375 58.41210938 C-1.12010014 58.3790159 -4.64198886 58.3272218 -8.1640625 58.265625 C-8.15740067 58.8728389 -8.15073883 59.4800528 -8.14387512 60.10566711 C-8.07759363 66.4156872 -8.03229186 72.72560868 -7.99926758 79.03588867 C-7.98416503 81.39204931 -7.96368159 83.74818177 -7.93774414 86.10424805 C-7.90142594 89.48753812 -7.88435083 92.87045708 -7.87109375 96.25390625 C-7.85560989 97.31023758 -7.84012604 98.36656891 -7.82417297 99.45491028 C-7.82394638 100.43570053 -7.82371979 101.41649078 -7.82348633 102.42700195 C-7.81682449 103.29081985 -7.81016266 104.15463776 -7.80329895 105.04463196 C-8.24340137 107.75406422 -8.99769568 108.62917556 -11.1640625 110.265625 C-13.38476562 110.65380859 -13.38476562 110.65380859 -15.9453125 110.6640625 C-16.86957031 110.66792969 -17.79382813 110.67179687 -18.74609375 110.67578125 C-19.70902344 110.66417969 -20.67195312 110.65257812 -21.6640625 110.640625 C-22.62699219 110.65222656 -23.58992187 110.66382813 -24.58203125 110.67578125 C-25.96841797 110.66998047 -25.96841797 110.66998047 -27.3828125 110.6640625 C-28.22779297 110.66067871 -29.07277344 110.65729492 -29.94335938 110.65380859 C-32.79818243 110.1547795 -33.47577869 109.62475928 -35.1640625 107.265625 C-35.4653123 104.72275751 -35.58430177 102.42334166 -35.56811523 99.87939453 C-35.57497849 99.12930618 -35.58184174 98.37921783 -35.58891296 97.60639954 C-35.60724652 95.12022059 -35.60332971 92.63466976 -35.59765625 90.1484375 C-35.60221941 88.41266679 -35.60752538 86.67689788 -35.61354065 84.94113159 C-35.62248792 81.29433891 -35.62003559 77.64776492 -35.61010742 74.00097656 C-35.59869605 69.35998051 -35.61869927 64.71975424 -35.64802456 60.07885933 C-35.66651932 56.48738911 -35.66606655 52.89609811 -35.66038704 49.30459213 C-35.66023501 47.5960165 -35.66618035 45.88742778 -35.67867851 44.17889786 C-35.76237584 30.84474223 -35.23120822 18.12179209 -25.30859375 8.0703125 C-18.06225283 1.97229883 -9.34517154 -0.05300542 0 0 Z " fill="#076D96" transform="translate(570.1640625,186.734375)"/>
<path d="M0 0 C0.85163727 -0.00945648 1.70327454 -0.01891296 2.58071899 -0.02865601 C3.49944794 -0.02258331 4.41817688 -0.01651062 5.36474609 -0.01025391 C6.7913002 -0.01455917 6.7913002 -0.01455917 8.24667358 -0.01895142 C10.26243687 -0.02099415 12.27821988 -0.01544972 14.29394531 -0.00292969 C17.35576752 0.01301479 20.41624822 -0.00271618 23.47802734 -0.02197266 C25.44026981 -0.01998818 27.40251145 -0.0161403 29.36474609 -0.01025391 C30.27132965 -0.0163266 31.17791321 -0.02239929 32.11196899 -0.02865601 C40.66077097 0.06420663 47.96494137 2.01282928 54.76318359 7.38818359 C61.47713323 14.29396036 62.2570987 21.80607231 62.18237305 31.02124023 C61.94775517 37.93297645 60.81994956 43.84717748 56.18505859 49.21630859 C49.44643263 55.46926782 41.63716573 57.53041996 32.58740234 57.48583984 C31.43046875 57.48261719 30.27353516 57.47939453 29.08154297 57.47607422 C27.88335938 57.46769531 26.68517578 57.45931641 25.45068359 57.45068359 C24.23316406 57.44617188 23.01564453 57.44166016 21.76123047 57.43701172 C18.76183134 57.42524937 15.76253271 57.40881185 12.76318359 57.38818359 C12.81539062 58.74363281 12.81539062 58.74363281 12.86865234 60.12646484 C12.89572266 61.30595703 12.92279297 62.48544922 12.95068359 63.70068359 C12.98548828 64.87244141 13.02029297 66.04419922 13.05615234 67.25146484 C12.76318359 70.38818359 12.76318359 70.38818359 11.45458984 72.28125 C8.67633968 74.09946395 6.02436348 73.78356597 2.76318359 73.76318359 C1.52568359 73.77091797 0.28818359 73.77865234 -0.98681641 73.78662109 C-4.23681641 73.38818359 -4.23681641 73.38818359 -5.91567993 72.26599121 C-7.86221775 69.49926453 -7.61817201 67.30488526 -7.625 63.94482422 C-7.63025696 63.29571579 -7.63551392 62.64660736 -7.64093018 61.97782898 C-7.65412937 59.83311875 -7.64539313 57.68915131 -7.63525391 55.54443359 C-7.63727468 54.05375018 -7.64018615 52.56306773 -7.64395142 51.0723877 C-7.64837463 47.94855332 -7.64194405 44.82497633 -7.62792969 41.70117188 C-7.61083749 37.69600183 -7.62067873 33.69143485 -7.63864708 29.68628693 C-7.64948517 26.60820976 -7.64603853 23.53027568 -7.6382637 20.45219421 C-7.63626175 18.97539702 -7.63872083 17.49858686 -7.64570236 16.02180481 C-7.65331763 13.9580339 -7.64171335 11.89524099 -7.625 9.83154297 C-7.62261322 8.65700562 -7.62022644 7.48246826 -7.61776733 6.27233887 C-7.23681641 3.38818359 -7.23681641 3.38818359 -5.97735596 1.50973511 C-3.82565084 0.12324083 -2.55199799 0.00814478 0 0 Z " fill="#FAFBFC" transform="translate(559.23681640625,404.61181640625)"/>
<path d="M0 0 C1.72927459 3.02167981 1.54626906 6.06269018 1.48828125 9.4453125 C1.49988281 10.12207031 1.51148438 10.79882812 1.5234375 11.49609375 C1.49428153 16.42345209 1.49428153 16.42345209 -0.12158203 18.63671875 C-2.38432691 20.31421703 -3.72750058 20.3273405 -6.52734375 20.3515625 C-7.43355469 20.37347656 -8.33976563 20.39539063 -9.2734375 20.41796875 C-10.69076172 20.43150391 -10.69076172 20.43150391 -12.13671875 20.4453125 C-21.24979367 20.53378896 -28.32499384 21.73948292 -35.38760376 27.94067383 C-38.43774758 32.01937113 -37.81006153 36.94242764 -37.71875 41.8359375 C-37.72629807 42.9768988 -37.73384613 44.11786011 -37.74162292 45.293396 C-37.76011566 48.92817543 -37.73167957 52.560662 -37.69921875 56.1953125 C-37.69321974 59.84367249 -37.69694773 63.49173645 -37.71037292 67.14007568 C-37.71588683 69.40818922 -37.70850948 71.67637675 -37.68721008 73.94439697 C-37.68448593 74.96595886 -37.68176178 75.98752075 -37.67895508 77.04003906 C-37.67116531 77.94127502 -37.66337555 78.84251099 -37.65534973 79.77105713 C-37.88671875 81.9453125 -37.88671875 81.9453125 -39.88671875 83.9453125 C-42.1015625 84.20410156 -42.1015625 84.20410156 -44.82421875 84.2109375 C-45.80132813 84.21351563 -46.7784375 84.21609375 -47.78515625 84.21875 C-48.80867187 84.21101563 -49.8321875 84.20328125 -50.88671875 84.1953125 C-51.91023437 84.20304687 -52.93375 84.21078125 -53.98828125 84.21875 C-54.96539063 84.21617187 -55.9425 84.21359375 -56.94921875 84.2109375 C-57.84769531 84.20868164 -58.74617187 84.20642578 -59.671875 84.20410156 C-61.88671875 83.9453125 -61.88671875 83.9453125 -63.88671875 81.9453125 C-64.08499325 79.42659258 -64.15951332 77.01783584 -64.14550781 74.49804688 C-64.14901245 73.73043533 -64.15251709 72.96282379 -64.15612793 72.17195129 C-64.16495043 69.62756378 -64.15909435 67.08345297 -64.15234375 64.5390625 C-64.15369025 62.77551215 -64.15563066 61.01196216 -64.15814209 59.24841309 C-64.16109405 55.54952465 -64.15679341 51.8507327 -64.14746094 48.15185547 C-64.13606634 43.40346344 -64.14262543 38.65529748 -64.15460587 33.90691376 C-64.16182253 30.26444791 -64.15953743 26.62203592 -64.15435028 22.97956848 C-64.15301325 21.22841872 -64.15466338 19.47726411 -64.15930939 17.72612 C-64.16437148 15.28147369 -64.15666906 12.83719682 -64.14550781 10.39257812 C-64.14955627 9.66420242 -64.15360474 8.93582672 -64.15777588 8.18537903 C-64.11524762 3.17384137 -64.11524762 3.17384137 -61.88671875 0.9453125 C-59.671875 0.68652344 -59.671875 0.68652344 -56.94921875 0.6796875 C-55.48355469 0.67582031 -55.48355469 0.67582031 -53.98828125 0.671875 C-52.96476563 0.67960938 -51.94125 0.68734375 -50.88671875 0.6953125 C-49.86320313 0.68757812 -48.8396875 0.67984375 -47.78515625 0.671875 C-46.80804687 0.67445313 -45.8309375 0.67703125 -44.82421875 0.6796875 C-43.92574219 0.68194336 -43.02726563 0.68419922 -42.1015625 0.68652344 C-39.88671875 0.9453125 -39.88671875 0.9453125 -37.88671875 2.9453125 C-37.48907612 4.93352563 -37.14896526 6.93475589 -36.88671875 8.9453125 C-36.20867188 8.47480469 -35.530625 8.00429687 -34.83203125 7.51953125 C-25.7956699 1.47443079 -10.89326803 -6.08940449 0 0 Z " fill="#036C97" transform="translate(899.88671875,213.0546875)"/>
<path d="M0 0 C4.0258662 3.38538749 7.17269115 7.32761683 8.1930542 12.60324097 C8.34086866 15.09267163 8.33973465 17.53448544 8.2734375 20.02734375 C8.26873444 20.92369034 8.26403137 21.82003693 8.25918579 22.74354553 C8.23799112 25.57984122 8.18141203 28.41421041 8.125 31.25 C8.10847799 33.18032097 8.09413378 35.11066189 8.08203125 37.04101562 C7.94610567 51.11639433 7.94610567 51.11639433 6.75 52.3125 C4.44098304 52.46429378 2.12632931 52.53431122 -0.1875 52.5625 C-1.45464844 52.58828125 -2.72179687 52.6140625 -4.02734375 52.640625 C-5.09082031 52.53234375 -6.15429688 52.4240625 -7.25 52.3125 C-7.91 51.3225 -8.57 50.3325 -9.25 49.3125 C-9.87003906 49.60125 -10.49007812 49.89 -11.12890625 50.1875 C-19.85907384 53.84730825 -29.09036474 55.24431363 -38.2890625 52.359375 C-43.79527934 49.79305565 -47.49160009 46.82929983 -50.25 41.3125 C-50.75282832 35.80611777 -50.96321529 30.91010224 -48.6875 25.8125 C-44.11624639 21.12403475 -39.00360201 18.46250214 -32.40917969 18.19897461 C-31.34086914 18.20421143 -30.27255859 18.20944824 -29.171875 18.21484375 C-28.01171875 18.21806641 -26.8515625 18.22128906 -25.65625 18.22460938 C-23.84640625 18.23717773 -23.84640625 18.23717773 -22 18.25 C-20.16695312 18.25676758 -20.16695312 18.25676758 -18.296875 18.26367188 C-15.28120054 18.27545185 -12.26562502 18.29190147 -9.25 18.3125 C-9.67492126 17.01664084 -10.11545882 15.7258956 -10.5625 14.4375 C-10.80613281 13.71820313 -11.04976562 12.99890625 -11.30078125 12.2578125 C-12.21335547 9.97255095 -12.21335547 9.97255095 -15.25 8.3125 C-18.96527666 7.75841635 -22.53460571 7.75707821 -26.25 8.3125 C-27.68714703 9.56219307 -29.12824916 10.81591306 -30.44140625 12.1953125 C-34.61031849 14.77049371 -40.53839857 13.78433419 -45.25 13.3125 C-46.25 12.3125 -46.25 12.3125 -46.75 8.625 C-46.70378299 6.0460908 -46.51160147 4.69224407 -45.0390625 2.5546875 C-33.30488654 -8.40822807 -13.29078946 -6.90098683 0 0 Z " fill="#FBFCFD" transform="translate(681.25,425.6875)"/>
<path d="M0 0 C5.28 0 10.56 0 16 0 C18.90785403 6.12726384 21.05160661 12.21492358 23 18.70703125 C23.95277022 21.84447381 24.93953796 24.95982006 26 28.0625 C26.28875 28.91972656 26.5775 29.77695312 26.875 30.66015625 C28.19540435 33.40641391 29.68538492 35.03170044 32 37 C32.99 37.33 33.98 37.66 35 38 C35.32871094 36.61554688 35.32871094 36.61554688 35.6640625 35.203125 C37.61674554 27.11704142 39.76963295 19.10346247 42.125 11.125 C42.50519287 9.81450684 42.50519287 9.81450684 42.89306641 8.47753906 C43.25924072 7.25502441 43.25924072 7.25502441 43.6328125 6.0078125 C43.84824707 5.28223145 44.06368164 4.55665039 44.28564453 3.80908203 C45 2 45 2 47 0 C49.58064129 -0.14497985 52.04943884 -0.18677545 54.625 -0.125 C55.33140625 -0.11597656 56.0378125 -0.10695313 56.765625 -0.09765625 C58.51056098 -0.07407603 60.25532295 -0.03820461 62 0 C63.1529085 3.45872549 62.80883514 4.45949095 61.8125 7.8828125 C61.52930908 8.87337646 61.24611816 9.86394043 60.9543457 10.88452148 C60.48194458 12.48855835 60.48194458 12.48855835 60 14.125 C59.34720739 16.38919355 58.69487723 18.65352048 58.04296875 20.91796875 C57.53515869 22.66859619 57.53515869 22.66859619 57.01708984 24.45458984 C56.0236267 27.91764117 55.06214625 31.38776993 54.11328125 34.86328125 C53.65985352 36.517229 53.65985352 36.517229 53.19726562 38.20458984 C52.62336872 40.30159394 52.05284952 42.39952649 51.48632812 44.49853516 C46.6725264 61.92971718 46.6725264 61.92971718 41.5625 67.5 C41.00691406 68.1290625 40.45132813 68.758125 39.87890625 69.40625 C34.79664566 73.71719037 29.21917669 73.3352553 22.875 73.3125 C21.96878906 73.32861328 21.06257812 73.34472656 20.12890625 73.36132812 C19.25878906 73.36197266 18.38867188 73.36261719 17.4921875 73.36328125 C16.70183105 73.36626221 15.91147461 73.36924316 15.09716797 73.37231445 C12.48660067 72.90885518 11.6036096 72.07319752 10 70 C9.54913655 67.24114506 9.81807551 64.81982959 10 62 C12.35152643 59.64847357 18.39675549 60.66994206 21.58203125 60.57421875 C25.48237948 59.91896025 26.63319014 59.09331265 29 56 C30.25436187 53.36777038 30.25436187 53.36777038 31 51 C30.35933594 50.92523438 29.71867188 50.85046875 29.05859375 50.7734375 C22.44311374 49.76780567 18.28511555 48.20973035 14 43 C9.26615867 34.96123901 6.26650709 26.46859297 3.625 17.5625 C3.27050781 16.41845703 2.91601562 15.27441406 2.55078125 14.09570312 C1.03679607 9.09487564 0 5.28397078 0 0 Z " fill="#FCFCFD" transform="translate(698,424)"/>
<path d="M0 0 C12.80740069 5.95759987 24.59722077 18.46690023 31 31 C33.97472461 43.49758516 22.45582149 60.76359154 16.234375 71.10449219 C13.77732439 75.04166646 11.1373799 78.59224427 8 82 C5.25 82.4375 5.25 82.4375 3 82 C2.505 81.505 2.505 81.505 2 81 C2.06482148 78.91392691 2.20244935 76.82993487 2.375 74.75 C2.46523438 73.61046875 2.55546875 72.4709375 2.6484375 71.296875 C2.94961307 68.47251739 3.38555321 65.77021771 4 63 C2.78183594 63.144375 1.56367188 63.28875 0.30859375 63.4375 C-1.31508014 63.62520796 -2.93877943 63.8126963 -4.5625 64 C-5.36236328 64.09539062 -6.16222656 64.19078125 -6.98632812 64.2890625 C-11.68956086 64.82657481 -16.2653513 65.19909167 -21 65 C-22 64 -22 64 -22.31640625 61.3203125 C-21.91495216 57.10752266 -20.46606795 55.24360972 -17.9375 51.875 C-17.10377522 50.7235172 -16.27309324 49.56982575 -15.4453125 48.4140625 C-14.82317871 47.55216309 -14.82317871 47.55216309 -14.18847656 46.67285156 C-5.90273398 35.01017527 1.51189232 19.58893105 1 5 C0.71479595 3.32442621 0.40044304 1.65182755 0 0 Z " fill="#046D98" transform="translate(466,171)"/>
<path d="M0 0 C3.50625 -0.0825 7.0125 -0.165 10.625 -0.25 C11.71893066 -0.28641602 12.81286133 -0.32283203 13.93994141 -0.36035156 C19.77121867 -0.42667686 23.51640072 -0.14986859 28 4 C31.12661504 8.4060944 30.47579145 13.83536051 30 19 C28.64464055 22.82689728 27.59237745 23.67808962 24.03125 25.61328125 C19.28428208 27.56715562 14.61664816 27.3282968 9.5625 27.1875 C4.8290625 27.0946875 4.8290625 27.0946875 0 27 C0 18.09 0 9.18 0 0 Z " fill="#026D98" transform="translate(572,420)"/>
<path d="M0 0 C1.20849609 0.00322266 2.41699219 0.00644531 3.66210938 0.00976562 C4.92474609 0.01814453 6.18738281 0.02652344 7.48828125 0.03515625 C9.39963867 0.04192383 9.39963867 0.04192383 11.34960938 0.04882812 C14.50001995 0.06062742 17.65040644 0.07856307 20.80078125 0.09765625 C20.80078125 4.05765625 20.80078125 8.01765625 20.80078125 12.09765625 C7.59111515 18.23071551 7.59111515 18.23071551 -0.13671875 18.34765625 C-1.15636719 18.3734375 -2.17601562 18.39921875 -3.2265625 18.42578125 C-6.65195579 18.04768265 -8.45002898 17.14400968 -11.19921875 15.09765625 C-13.63517147 11.44372716 -13.32499295 10.10629672 -12.6796875 5.96875 C-12.06266801 3.5658855 -11.276221 2.45569618 -9.19921875 1.09765625 C-5.90187229 -0.00145924 -3.4696313 -0.01628935 0 0 Z " fill="#FBD306" transform="translate(639.19921875,262.90234375)"/>
<path d="M0 0 C0.88816406 0.01353516 1.77632812 0.02707031 2.69140625 0.04101562 C4.87822578 0.07628691 7.06379966 0.12557248 9.25 0.1875 C9.25 2.8275 9.25 5.4675 9.25 8.1875 C2.69606478 11.81239257 -3.24897181 13.39498259 -10.75 12.1875 C-13.5 10.5 -13.5 10.5 -14.75 8.1875 C-14.75 5.18813917 -14.28433113 3.79077708 -12.296875 1.546875 C-8.32102273 -0.57520566 -4.42729323 -0.12752174 0 0 Z " fill="#0F719C" transform="translate(662.75,454.8125)"/>
</svg>
